<?xml version="1.0" encoding="iso-8859-1"?>
<!-- Generator: Adobe Illustrator 19.0.0, SVG Export Plug-In . SVG Version: 6.00 Build 0)  -->
<svg version="1.1" id="Layer_1" xmlns="http://www.w3.org/2000/svg" xmlns:xlink="http://www.w3.org/1999/xlink" x="0px" y="0px"
	 viewBox="0 0 116 30" style="enable-background:new 0 0 116 30;" xml:space="preserve">
<g>
	<defs>
		<rect id="XMLID_2_" x="-0.75" width="116.75" height="30"/>
	</defs>
	<clipPath id="XMLID_56_">
		<use xlink:href="#XMLID_2_"  style="overflow:visible;"/>
	</clipPath>
	<path style="clip-path:url(#XMLID_56_);fill:#231F20;" d="M15.432,16.601v-0.168c0,0-0.575-0.028-1.219-0.028
		c-1.891,0-2.423,0.504-2.423,1.415c0,0.757,0.616,1.219,1.387,1.219C14.997,19.039,15.432,17.442,15.432,16.601 M40.447,15.399
		h4.006c-0.084-1.233-0.672-2.144-1.947-2.144C41.19,13.255,40.545,14.306,40.447,15.399 M56.001,15.399h4.006
		c-0.084-1.233-0.672-2.144-1.947-2.144C56.743,13.255,56.099,14.306,56.001,15.399 M77.855,15.399h4.006
		c-0.084-1.233-0.672-2.144-1.947-2.144C78.597,13.255,77.953,14.306,77.855,15.399 M100.241,14.263c0,0.645,0.42,0.925,1.247,1.135
		l1.204,0.308c1.274,0.322,1.819,1.022,1.819,2.002c0,1.429-1.091,2.393-2.897,2.393c-1.751,0-2.506-0.755-2.967-1.86l1.105-0.463
		c0.321,0.701,0.853,1.275,1.876,1.275c1.036,0,1.625-0.448,1.625-1.135c0-0.546-0.253-0.854-1.233-1.106l-1.037-0.266
		c-1.259-0.322-2.014-0.966-2.014-2.199c0-1.092,0.964-2.14,2.659-2.14c1.625,0,2.394,0.741,2.785,1.622l-1.104,0.49
		c-0.253-0.49-0.715-1.05-1.667-1.05C100.591,13.269,100.241,13.787,100.241,14.263 M97.301,19.905
		c-0.532,0.112-0.84,0.14-1.176,0.14c-1.441,0-1.902-0.587-1.902-1.986l0.028-4.636h-1.288v-1.02h1.288l0.084-2.03h1.174v2.03h1.708
		v1.02h-1.68v4.621c0,0.771,0.308,0.953,1.008,0.953c0.35,0,0.7-0.056,0.7-0.056L97.301,19.905z M91.421,19.891h-1.3v-4.48
		c0-1.596-0.785-2.058-1.695-2.058c-1.135,0-1.947,0.686-1.947,2.24v4.298h-1.3v-7.488h1.258v1.104c0.42-0.615,1.12-1.3,2.381-1.3
		c1.736,0,2.603,1.202,2.603,2.812V19.891z M83.287,16.419h-5.46c0.014,1.471,0.868,2.578,2.241,2.578
		c0.938,0,1.471-0.42,1.905-1.065l1.034,0.56c-0.517,0.91-1.524,1.609-3.037,1.609c-2.241,0-3.499-1.609-3.499-3.92
		c0-2.225,1.244-3.974,3.527-3.974C82.434,12.207,83.287,14.082,83.287,16.419 M74.509,19.891h-1.3v-4.48
		c0-1.596-0.785-2.058-1.695-2.058c-1.135,0-1.947,0.686-1.947,2.24v4.298h-1.3v-4.48c0-1.596-0.785-2.058-1.695-2.058
		c-1.134,0-1.947,0.686-1.947,2.24v4.298h-1.3v-7.488h1.258v1.104c0.42-0.615,1.121-1.3,2.381-1.3c1.219,0,2.002,0.601,2.365,1.496
		c0.588-0.867,1.317-1.496,2.577-1.496c1.736,0,2.603,1.202,2.603,2.812V19.891z M61.433,16.419h-5.46
		c0.014,1.471,0.869,2.578,2.241,2.578c0.939,0,1.471-0.42,1.905-1.065l1.035,0.56c-0.518,0.91-1.525,1.609-3.038,1.609
		c-2.241,0-3.499-1.609-3.499-3.92c0-2.225,1.244-3.974,3.527-3.974C60.58,12.207,61.433,14.082,61.433,16.419 M53.635,12.403
		l-2.645,7.488h-1.554l-2.645-7.488h1.4l1.721,5.208c0.21,0.616,0.322,1.064,0.322,1.064h0.042c0,0,0.126-0.448,0.336-1.064
		l1.736-5.208H53.635z M45.879,16.419h-5.46c0.014,1.471,0.869,2.578,2.241,2.578c0.939,0,1.471-0.42,1.905-1.065l1.035,0.56
		c-0.518,0.91-1.525,1.609-3.038,1.609c-2.24,0-3.499-1.609-3.499-3.92c0-2.225,1.244-3.974,3.527-3.974
		C45.026,12.207,45.879,14.082,45.879,16.419 M37.115,10.819h-1.468V9.323h1.468V10.819z M33.28,19.891h-1.301v-4.48
		c0-1.596-0.784-2.058-1.695-2.058c-1.134,0-1.946,0.686-1.946,2.24v4.298h-1.301V9.001h1.301v4.478
		c0.378-0.587,1.078-1.272,2.339-1.272c1.736,0,2.603,1.202,2.603,2.812V19.891z M19.91,16.126c0,1.694,0.742,2.885,2.254,2.885
		c1.092,0,1.638-0.56,2.016-1.303l1.064,0.477c-0.546,1.105-1.414,1.916-3.15,1.916c-2.408,0-3.513-1.65-3.513-3.807
		c0-2.171,1.175-4.087,3.653-4.087c1.792,0,2.576,1.034,2.898,1.804l-1.204,0.519c-0.266-0.533-0.672-1.247-1.806-1.247
		C20.694,13.283,19.91,14.557,19.91,16.126 M16.76,19.891h-1.244l-0.07-1.132c-0.477,0.713-1.107,1.328-2.55,1.328
		c-1.4,0-2.462-0.853-2.462-2.226c0-1.666,1.51-2.476,3.681-2.476c0.7,0,1.317,0.042,1.317,0.042v-0.196
		c0-1.093-0.281-1.962-1.751-1.962c-1.121,0-1.527,0.631-1.723,1.275l-1.175-0.35c0.182-0.869,0.993-2.001,3.01-2.001
		c1.764,0,2.897,0.782,2.897,2.954v2.77C16.69,18.743,16.76,19.891,16.76,19.891 M35.731,12.403h1.3v7.488h-1.3V12.403z M116,0
		H-0.75v30H116V0z"/>
</g>
</svg>
