<?xml version="1.0" encoding="iso-8859-1"?>
<!-- Generator: Adobe Illustrator 19.0.0, SVG Export Plug-In . SVG Version: 6.00 Build 0)  -->
<svg version="1.1" id="Layer_1" xmlns="http://www.w3.org/2000/svg" xmlns:xlink="http://www.w3.org/1999/xlink" x="0px" y="0px"
	 viewBox="0 0 40.833 21.667" style="enable-background:new 0 0 40.833 21.667;" xml:space="preserve">
<path id="XMLID_59_" d="M33.383,10.802H10.754l5.678-3.616c0.238-0.152,0.308-0.468,0.157-0.705
	c-0.152-0.237-0.469-0.306-0.705-0.157l-7.265,4.627c-0.147,0.094-0.236,0.256-0.236,0.431s0.089,0.337,0.236,0.431l7.265,4.627
	c0.085,0.054,0.18,0.08,0.274,0.08c0.169,0,0.334-0.084,0.431-0.236c0.152-0.237,0.081-0.553-0.157-0.705l-5.678-3.616h22.629
	c0.32,0,0.58-0.26,0.58-0.58S33.703,10.802,33.383,10.802z"/>
</svg>
