<?xml version="1.0" encoding="iso-8859-1"?>
<!-- Generator: Adobe Illustrator 19.0.0, SVG Export Plug-In . SVG Version: 6.00 Build 0)  -->
<svg version="1.1" id="Layer_1" xmlns="http://www.w3.org/2000/svg" xmlns:xlink="http://www.w3.org/1999/xlink" x="0px" y="0px"
	 viewBox="-330 598 130 30" style="enable-background:new -330 598 130 30;" xml:space="preserve">
<g>
	<path style="fill:#FFFFFF;" d="M-224.4,616.2c0,0.8,0.7,1.3,1.5,1.3c2,0,2.4-1.7,2.4-2.6v-0.2c0,0-0.6,0-1.3,0
		C-223.9,614.7-224.4,615.2-224.4,616.2z"/>
	<path style="fill:#FFFFFF;" d="M-292.1,611.3c-1.4,0-2.1,1.1-2.2,2.3h4.3C-290.1,612.3-290.8,611.3-292.1,611.3z"/>
	<path style="fill:#FFFFFF;" d="M-240.9,611.3c-1.6,0-2.4,1.3-2.4,3c0,1.8,0.7,3,2.3,3c1.5,0,2.4-1.2,2.4-3
		C-238.6,612.6-239.4,611.3-240.9,611.3z"/>
	<path style="fill:#FFFFFF;" d="M-330,598v30h130v-30H-330z M-307.8,618.4h-1.4v-4.8c0-1.7-0.8-2.2-1.8-2.2c-1.2,0-2.1,0.7-2.1,2.4
		v4.6h-1.4v-11.7h1.4v4.8c0.4-0.6,1.2-1.4,2.5-1.4c1.9,0,2.8,1.3,2.8,3V618.4z M-303.8,618.4h-1.4v-8h1.4V618.4z M-303.7,608.7h-1.6
		v-1.6h1.6V608.7z M-298.6,618.6c-1.5,0-2-0.6-2-2.1v-5h-1.4v-1.1h1.4l0.1-2.2h1.3v2.2h1.8v1.1h-1.8v5c0,0.8,0.3,1,1.1,1
		c0.4,0,0.8-0.1,0.8-0.1l0.1,1C-297.9,618.5-298.2,618.6-298.6,618.6z M-292,617.5c1,0,1.6-0.4,2-1.1l1.1,0.6
		c-0.6,1-1.6,1.7-3.3,1.7c-2.4,0-3.7-1.7-3.7-4.2c0-2.4,1.3-4.3,3.8-4.3c2.6,0,3.5,2,3.5,4.5h-5.8
		C-294.3,616.3-293.4,617.5-292,617.5z M-284,618.6c-1.9,0-2.7-0.8-3.2-2l1.2-0.5c0.3,0.8,0.9,1.4,2,1.4s1.7-0.5,1.7-1.2
		c0-0.6-0.3-0.9-1.3-1.2l-1.1-0.3c-1.3-0.3-2.2-1-2.2-2.4c0-1.2,1-2.3,2.8-2.3c1.7,0,2.6,0.8,3,1.7l-1.2,0.5
		c-0.3-0.5-0.8-1.1-1.8-1.1c-1.1,0-1.5,0.6-1.5,1.1c0,0.7,0.5,1,1.3,1.2l1.3,0.3c1.4,0.3,1.9,1.1,1.9,2.1
		C-280.9,617.6-282,618.6-284,618.6z M-272,618.4h-1.4v-4.8c0-1.7-0.8-2.2-1.8-2.2c-1.2,0-2.1,0.7-2.1,2.4v4.6h-1.4v-11.7h1.4v4.8
		c0.4-0.6,1.2-1.4,2.5-1.4c1.9,0,2.8,1.3,2.8,3V618.4z M-263,618.6c-1.9,0-2.7-0.8-3.2-2l1.2-0.5c0.3,0.8,0.9,1.4,2,1.4
		s1.7-0.5,1.7-1.2c0-0.6-0.3-0.9-1.3-1.2l-1.1-0.3c-1.3-0.3-2.2-1-2.2-2.4c0-1.2,1-2.3,2.8-2.3c1.7,0,2.6,0.8,3,1.7l-1.2,0.5
		c-0.3-0.5-0.8-1.1-1.8-1.1c-1.1,0-1.5,0.6-1.5,1.1c0,0.7,0.5,1,1.3,1.2l1.3,0.3c1.4,0.3,1.9,1.1,1.9,2.1
		C-259.9,617.6-261,618.6-263,618.6z M-256.3,618.4h-1.4v-8h1.4V618.4z M-256.2,608.7h-1.6v-1.6h1.6V608.7z M-246.9,618.4h-1.4v-4.8
		c0-1.7-0.8-2.2-1.8-2.2c-1.2,0-2.1,0.7-2.1,2.4v4.6h-1.4v-8h1.3v1.2c0.5-0.7,1.2-1.4,2.6-1.4c1.9,0,2.8,1.3,2.8,3V618.4z
		 M-237.4,618c0,2.4-0.9,3.9-3.8,3.9c-2.2,0-3-1-3.4-2.1l1.3-0.4c0.3,0.9,0.9,1.4,2.1,1.4c1.7,0,2.4-0.8,2.4-2.4v-1.5
		c-0.4,0.9-1.2,1.5-2.6,1.5c-2.3,0-3.5-1.8-3.5-4.1s1.3-4.2,3.6-4.2c1.5,0,2.2,0.8,2.5,1.4v-1.2h1.3v7.7H-237.4z M-228,618.4h-1.4
		v-4.8c0-1.7-0.8-2.2-1.8-2.2c-1.2,0-2.1,0.7-2.1,2.4v4.6h-1.4v-11.7h1.4v4.8c0.4-0.6,1.2-1.4,2.5-1.4c1.9,0,2.8,1.3,2.8,3V618.4z
		 M-220.4,618.4l-0.1-1.2c-0.5,0.8-1.2,1.4-2.7,1.4s-2.6-0.9-2.6-2.4c0-1.8,1.6-2.7,3.9-2.7c0.8,0,1.4,0,1.4,0v-0.2
		c0-1.2-0.3-2.1-1.9-2.1c-1.2,0-1.6,0.7-1.8,1.4l-1.3-0.4c0.2-0.9,1.1-2.1,3.2-2.1c1.9,0,3.1,0.8,3.1,3.2v3c0,0.9,0.1,2.1,0.1,2.1
		H-220.4z M-215.2,618.4h-1.4v-11.7h1.4V618.4z"/>
</g>
</svg>
