<?xml version="1.0" encoding="utf-8"?>
<!-- Generator: Adobe Illustrator 19.1.0, SVG Export Plug-In . SVG Version: 6.00 Build 0)  -->
<svg version="1.1" id="Layer_1" xmlns="http://www.w3.org/2000/svg" xmlns:xlink="http://www.w3.org/1999/xlink" x="0px" y="0px"
	 viewBox="-365 283.3 110 30" enable-background="new -365 283.3 110 30" xml:space="preserve">
<g>
	<path fill="#FFFFFF" d="M-290.6,294.2c-2.3,0-3.7,1.7-3.7,4.1v0.1c0,2.4,1.6,4.1,3.7,4.1c2.2,0,3.6-1.7,3.6-4.1v-0.1
		C-287,296-288.3,294.2-290.6,294.2z"/>
	<polygon fill="#FFFFFF" points="-332.7,299.5 -329.3,299.5 -331,294.3 	"/>
	<path fill="#FFFFFF" d="M-321.3,294.3h-1.4v8h1.4c2.6,0,3.9-1.5,3.9-4v-0.1C-317.4,295.9-318.5,294.3-321.3,294.3z"/>
	<path fill="#FFFFFF" d="M-348.1,296.1L-348.1,296.1c0-1.4-0.8-1.9-2.2-1.9h-1.9v3.7h1.9C-348.9,298-348.1,297.4-348.1,296.1z"/>
	<path fill="#FFFFFF" d="M-365,283.3v30h110v-30H-365z M-347.7,303.3l-3-4.4h-1.5v4.4h-1.2v-10h3c1.9,0,3.5,0.8,3.5,2.8v0.1
		c0,1.7-1.1,2.5-2.5,2.7l3.1,4.4H-347.7z M-337.4,303.3h-6.1v-10h5.8v1h-4.6v3.4h3.7v1h-3.7v3.6h4.9
		C-337.4,302.3-337.4,303.3-337.4,303.3z M-328,303.3l-1-2.9h-4.1l-0.9,2.9h-1.1l3.4-10h1.6l3.4,10H-328z M-316.2,298.3
		c0,2.8-1.6,5-5.1,5h-2.6v-10h2.6c3.4,0,5.1,2.1,5.1,4.9V298.3z M-298.7,303.3h-1.2v-8.4l-3.4,8.4h-0.4l-3.4-8.4v8.4h-1.1v-10h1.7
		l3.1,7.8l3-7.8h1.7C-298.7,293.3-298.7,303.3-298.7,303.3z M-285.8,298.3c0,2.8-1.9,5.1-4.9,5.1s-5-2.3-5-5.1l0,0
		c0-2.8,2-5.1,4.9-5.1c2.9,0,4.9,2.2,4.9,5.1l0,0H-285.8z M-276.9,303.3l-3-4.4h-1.5v4.4h-1.2v-10h3c1.9,0,3.5,0.8,3.5,2.8v0.1
		c0,1.7-1.1,2.5-2.5,2.7l3.1,4.4H-276.9z M-266.6,303.3h-6.1v-10h5.8v1h-4.6v3.4h3.7v1h-3.7v3.6h4.9
		C-266.6,302.3-266.6,303.3-266.6,303.3z"/>
	<path fill="#FFFFFF" d="M-277.3,296.1L-277.3,296.1c0-1.4-0.8-1.9-2.2-1.9h-1.9v3.7h1.9C-278.1,298-277.3,297.4-277.3,296.1z"/>
</g>
</svg>
