<?xml version="1.0" encoding="utf-8"?>
<!-- Generator: Adobe Illustrator 19.1.0, SVG Export Plug-In . SVG Version: 6.00 Build 0)  -->
<svg version="1.1" id="Layer_1" xmlns="http://www.w3.org/2000/svg" xmlns:xlink="http://www.w3.org/1999/xlink" x="0px" y="0px"
	 viewBox="-369 283.3 102 30" enable-background="new -369 283.3 102 30" xml:space="preserve">
<g>
	<path fill="#FFFFFF" d="M-289.3,296L-289.3,296c0-1.5-0.9-2-2.4-2h-2v4h2C-290.1,298-289.3,297.3-289.3,296z"/>
	<path fill="#FFFFFF" d="M-303.6,293.9c-2.5,0-3.9,1.8-3.9,4.4v0.1c0,2.6,1.7,4.4,4,4.4c2.4,0,3.9-1.8,3.9-4.4v-0.1
		C-299.7,295.8-301.1,293.9-303.6,293.9z"/>
	<path fill="#FFFFFF" d="M-369,283.3v30h102v-30H-369z M-354.1,303.8c-2.9,0-3.9-1.6-4.1-3.4h1.3c0.2,1.3,0.7,2.4,2.8,2.4
		c1.4,0,2.4-0.8,2.4-2s-0.6-1.7-2.6-2.1c-2.3-0.3-3.6-1-3.6-3c0-1.7,1.4-2.9,3.4-2.9c2.1,0,3.5,1,3.7,3h-1.2c-0.3-1.3-1-1.9-2.5-1.9
		s-2.2,0.7-2.2,1.7c0,1.1,0.4,1.6,2.6,1.9c2.4,0.4,3.6,1.1,3.6,3.1C-350.4,302.4-351.9,303.8-354.1,303.8z M-340.4,303.7h-6.5v-10.8
		h6.3v1.1h-5v3.6h4v1.1h-4v3.9h5.2C-340.4,302.6-340.4,303.7-340.4,303.7z M-330.7,303.7h-6.5v-10.8h6.2v1.1h-5v3.6h4v1.1h-4v3.9
		h5.2L-330.7,303.7L-330.7,303.7z M-312.2,303.7h-1.3v-9l-3.6,9h-0.4l-3.7-9v9h-1.2v-10.8h1.8l3.3,8.4l3.3-8.4h1.8V303.7z
		 M-298.3,298.3c0,3-2.1,5.5-5.2,5.5c-3.2,0-5.3-2.4-5.3-5.4v-0.1c0-3,2.1-5.4,5.3-5.4C-300.4,292.9-298.3,295.3-298.3,298.3
		L-298.3,298.3z M-288.8,303.7l-3.2-4.7h-1.7v4.7h-1.3v-10.8h3.2c2.1,0,3.7,0.8,3.7,3v0.1c0,1.8-1.2,2.6-2.7,2.9l3.3,4.8
		C-287.5,303.7-288.8,303.7-288.8,303.7z M-277.8,303.7h-6.5v-10.8h6.3v1.1h-5v3.6h4v1.1h-4v3.9h5.2V303.7z"/>
</g>
</svg>
